# xmcd
#
# Track frame offsets:
#	150
#	11259
#	33402
#	54487
#	69025
#	90835
#	100998
#	119241
#	143530
#	161189
#	177537
#	212917
#	225560
#	241017
#	257338
#	281460
#	295774
#	315578
#
# Disc length: 4457 seconds
#
# Revision: 1
# Processed by: cddbd v1.5.2PL0 Copyright (c) Steve Scherf et al.
# Submitted via: audiograbber 1.83.01
#
DISCID=ed116712
DTITLE=Vince Gill (With. Lazy River) - Live At Oak Street CD1
DYEAR=1976
DGENRE=Country
TTITLE0=You Don't Love Me
TTITLE1=I'll Be Your Baby Tonight
TTITLE2=I Know What It Means To Be Lonesome
TTITLE3=Ground Speed
TTITLE4=Good Woman's Love
TTITLE5=Dixie Blues
TTITLE6=One Of These Days
TTITLE7=Salty Dog
TTITLE8=Panhandle Rag
TTITLE9=Louise
TTITLE10=Uncle Pen, Sally Goodin
TTITLE11=Big River
TTITLE12=Blue Eyes Crying In The Rain
TTITLE13=Beaumont Rag
TTITLE14=Milk Cow Blues
TTITLE15=Hey Good Lookin'
TTITLE16=I'm So Lonesome I Could Cry
TTITLE17=Las Vegas
EXTD=
EXTT0=
EXTT1=
EXTT2=
EXTT3=
EXTT4=
EXTT5=
EXTT6=
EXTT7=
EXTT8=
EXTT9=
EXTT10=
EXTT11=
EXTT12=
EXTT13=
EXTT14=
EXTT15=
EXTT16=
EXTT17=
PLAYORDER=
